# xmcd CD database file
#
# Track frame offsets:
#	150
#	89213
#	166922
#	235369
#
# Disc length: 4434 seconds
#
# Revision: 0
# Processed by: cddbd v1.5.2PL0 Copyright (c) Steve Scherf et al.
# Submitted via: CDex 1.50Beta7
#
DISCID=2f115004
DTITLE=Clifford Brown - The Emarcy Master Takes [CD2]
DYEAR=2010
DGENRE=Jazz
TTITLE0=Coronado
TTITLE1=You Go To My Head
TTITLE2=Caravan
TTITLE3=Autumn In New York
EXTD=YEAR: 2010
EXTT0=
EXTT1=
EXTT2=
EXTT3=
PLAYORDER=
